<svg style="width: 60px; height: 60px;" viewBox="0 0 53 55" fill="none" xmlns="http://www.w3.org/2000/svg">
  <path opacity="0.997" fill-rule="evenodd" clip-rule="evenodd" d="M25.1093 24.6521C24.4336 24.5922 23.7567 24.5513 23.0785 24.529C13.0306 22.614 5.96372 16.9729 1.87781 7.60544C1.37533 6.36466 0.934269 5.10308 0.554688 3.8207C5.97043 1.17963 11.6937 -0.0922202 17.7245 0.00519821C22.6065 0.161818 26.9348 1.76187 30.7095 4.80535C34.8342 8.53371 35.7675 12.9544 33.5096 18.0673C33.2429 18.5596 32.9762 19.0519 32.7095 19.5443C32.6472 19.6886 32.5447 19.7912 32.4018 19.852C29.6117 19.1065 27.4168 19.927 25.817 22.3136C25.4131 23.0433 25.1772 23.8227 25.1093 24.6521Z" fill="#FE8300"/>
  <path opacity="0.998" fill-rule="evenodd" clip-rule="evenodd" d="M23.0776 24.5273C23.7559 24.5495 24.4328 24.5905 25.1085 24.6504C25.0188 27.1226 26.065 28.9278 28.247 30.0659C26.8389 31.8154 25.8953 33.7847 25.4162 35.9738C21.9178 40.5056 17.3638 43.4491 11.7542 44.8048C7.87058 45.6726 3.95249 45.8677 0 45.3895C0.597496 40.1561 2.55657 35.5203 5.87711 31.4814C8.09447 29.0032 10.7715 27.2083 13.9081 26.0966C16.0335 25.2832 18.2284 24.7703 20.4929 24.5581C21.3543 24.5273 22.2158 24.517 23.0776 24.5273Z" fill="#51C11A"/>
  <path opacity="0.997" fill-rule="evenodd" clip-rule="evenodd" d="M25.4171 35.9755C25.8962 33.7864 26.8399 31.8171 28.248 30.0676C30.8755 31.1261 33.1217 30.5928 34.9866 28.4676C35.2265 28.1247 35.4419 27.7657 35.6328 27.3906C42.4574 27.4416 47.2886 30.5494 50.1256 36.714C51.469 40.0064 52.2075 43.4324 52.341 46.9912C52.445 49.6658 52.3527 52.3323 52.0641 54.9915C47.3107 55.082 42.6743 54.3945 38.156 52.9299C34.0201 51.5409 30.6456 49.1101 28.0326 45.6373C26.5157 43.6108 25.6131 41.3338 25.3248 38.8064C25.2676 37.8586 25.2983 36.9152 25.4171 35.9755Z" fill="#0086F7"/>
</svg>
